# xmcd
#
# Track frame offsets: 
#        150
#        23350
#        40941
#        57011
#        79871
#        104426
#        109279
#        136127
#        160554
#        175973
#        198296
#
# Disc length: 2893 seconds
#
# Revision: 0
# Processed by: cddbd v1.5.2PL0 Copyright (c) Steve Scherf et al.
# Submitted via: ExactAudioCopyFreeDBPlugin 1.0
#
DISCID=810b4b0b
DTITLE=Spangle call Lilli line - ghost is dead
DYEAR=2015
DGENRE=Alternative
TTITLE0=azure
TTITLE1=echoes of S
TTITLE2=ghost in a closet
TTITLE3=escort and landing
TTITLE4=feel uneasy
TTITLE5=dawn draw near
TTITLE6=iris
TTITLE7=evoke
TTITLE8=anthology of time
TTITLE9=constellation
TTITLE10=sogna
EXTD=
EXTT0=
EXTT1=
EXTT2=
EXTT3=
EXTT4=
EXTT5=
EXTT6=
EXTT7=
EXTT8=
EXTT9=
EXTT10=
PLAYORDER=
